<?xml version="1.0" encoding="UTF-8" standalone="no"?>
<svg
   version="1.1"
   viewBox="0 0 320 280.00001"
   fill="none"
   stroke="none"
   stroke-linecap="square"
   stroke-miterlimit="10"
   id="svg51"
   sodipodi:docname="[+Google] Geofencing PR.svg"
   width="320"
   height="280"
   inkscape:version="1.2.2 (b0a8486, 2022-12-01)"
   xmlns:inkscape="http://www.inkscape.org/namespaces/inkscape"
   xmlns:sodipodi="http://sodipodi.sourceforge.net/DTD/sodipodi-0.dtd"
   xmlns="http://www.w3.org/2000/svg"
   xmlns:svg="http://www.w3.org/2000/svg">
  <path
     fill="#c9daf8"
     fill-opacity="0.5"
     d="M 16,58.015747 H 190.07874 V 176.09448 H 16 Z"
     fill-rule="evenodd"
     id="path7"
     clip-path="url(#clipPath361)"
     transform="translate(6.5,-16)"
     style="display:inline" />
  <path
     stroke="#000000"
     stroke-width="1"
     stroke-linejoin="round"
     stroke-linecap="butt"
     d="M 16,58.015747 H 190.07874 V 176.09448 H 16 Z"
     fill-rule="evenodd"
     id="path9"
     clip-path="url(#clipPath355)"
     transform="translate(6.5,-16)"
     style="display:inline" />
  <path
     fill="#f4cccc"
     fill-opacity="0.5"
     d="M 109.37008,125.93175 H 283.44882 V 244.01049 H 109.37008 Z"
     fill-rule="evenodd"
     id="path11"
     clip-path="url(#clipPath349)"
     transform="translate(6.5,-16)" />
  <path
     stroke="#000000"
     stroke-width="1"
     stroke-linejoin="round"
     stroke-linecap="butt"
     d="M 109.37008,125.93175 H 283.44882 V 244.01049 H 109.37008 Z"
     fill-rule="evenodd"
     id="path13"
     clip-path="url(#clipPath343)"
     transform="translate(6.5,-16)" />
  <path
     fill="#000000"
     fill-opacity="0"
     d="M 16,16 H 190.07874 V 58.015747 H 16 Z"
     fill-rule="evenodd"
     id="path15"
     clip-path="url(#clipPath337)"
     transform="translate(6.5,-16)" />
  <path
     fill="#000000"
     d="M 62.46871,42.92 V 29.560625 h 5.046875 q 1.328125,0 2.03125,0.125 0.96875,0.171875 1.640625,0.640625 0.671875,0.453125 1.078125,1.28125 0.40625,0.828125 0.40625,1.828125 0,1.703125 -1.09375,2.890625 -1.078125,1.171875 -3.921875,1.171875 H 64.234335 V 42.92 Z m 1.765625,-7 h 3.453125 q 1.71875,0 2.4375,-0.640625 0.71875,-0.640625 0.71875,-1.796875 0,-0.84375 -0.421875,-1.4375 -0.421875,-0.59375 -1.125,-0.78125 -0.4375,-0.125 -1.640625,-0.125 h -3.421875 z m 9.865448,2.15625 q 0,-2.6875 1.484375,-3.96875 1.25,-1.078125 3.046875,-1.078125 2,0 3.265625,1.3125 1.265625,1.296875 1.265625,3.609375 0,1.859375 -0.5625,2.9375 -0.5625,1.0625 -1.640625,1.65625 -1.0625,0.59375 -2.328125,0.59375 -2.03125,0 -3.28125,-1.296875 -1.25,-1.3125 -1.25,-3.765625 z m 1.6875,0 q 0,1.859375 0.796875,2.796875 0.8125,0.921875 2.046875,0.921875 1.21875,0 2.03125,-0.921875 0.8125,-0.9375 0.8125,-2.84375 0,-1.796875 -0.8125,-2.71875 -0.8125,-0.921875 -2.03125,-0.921875 -1.234375,0 -2.046875,0.921875 -0.796875,0.90625 -0.796875,2.765625 z M 85.038,42.92 V 29.560625 h 1.640625 V 42.92 Z m 4.113571,3.71875 -0.1875,-1.53125 q 0.546875,0.140625 0.9375,0.140625 0.546875,0 0.875,-0.1875 0.328125,-0.171875 0.546875,-0.5 0.15625,-0.25 0.5,-1.21875 0.04687,-0.140625 0.140625,-0.40625 l -3.671875,-9.6875 h 1.765625 l 2.015625,5.59375 q 0.390625,1.078125 0.703125,2.25 0.28125,-1.125 0.671875,-2.203125 l 2.078125,-5.640625 h 1.640625 l -3.6875,9.828125 q -0.59375,1.609375 -0.921875,2.203125 -0.4375,0.8125 -1,1.1875 -0.5625,0.375 -1.34375,0.375 -0.484375,0 -1.0625,-0.203125 z m 9.09375,-2.921875 1.59375,0.234375 q 0.109375,0.75 0.562499,1.078125 0.60938,0.453125 1.67188,0.453125 1.14062,0 1.75,-0.453125 0.625,-0.453125 0.84375,-1.265625 0.125,-0.5 0.10937,-2.109375 -1.0625,1.265625 -2.67187,1.265625 -2,0 -3.093754,-1.4375 -1.09375,-1.4375 -1.09375,-3.453125 0,-1.390625 0.5,-2.5625 Q 98.932821,34.295 99.870321,33.67 q 0.953129,-0.640625 2.249999,-0.640625 1.70313,0 2.8125,1.375 v -1.15625 h 1.51563 V 41.6075 q 0,2.265625 -0.46875,3.203125 -0.45313,0.9375 -1.45313,1.484375 -0.98437,0.546875 -2.45312,0.546875 -1.71875,0 -2.796879,-0.78125 -1.0625,-0.765625 -1.03125,-2.34375 z m 1.359375,-5.8125 q 0,1.90625 0.750004,2.78125 0.76562,0.875 1.90625,0.875 1.125,0 1.89062,-0.859375 0.76563,-0.875 0.76563,-2.734375 0,-1.78125 -0.79688,-2.671875 -0.78125,-0.90625 -1.89062,-0.90625 -1.09375,0 -1.85938,0.890625 -0.765624,0.875 -0.765624,2.625 z m 8.719464,0.171875 q 0,-2.6875 1.48438,-3.96875 1.25,-1.078125 3.04687,-1.078125 2,0 3.26563,1.3125 1.26562,1.296875 1.26562,3.609375 0,1.859375 -0.5625,2.9375 -0.5625,1.0625 -1.64062,1.65625 -1.0625,0.59375 -2.32813,0.59375 -2.03125,0 -3.28125,-1.296875 -1.25,-1.3125 -1.25,-3.765625 z m 1.6875,0 q 0,1.859375 0.79688,2.796875 0.8125,0.921875 2.04687,0.921875 1.21875,0 2.03125,-0.921875 0.8125,-0.9375 0.8125,-2.84375 0,-1.796875 -0.8125,-2.71875 -0.8125,-0.921875 -2.03125,-0.921875 -1.23437,0 -2.04687,0.921875 -0.79688,0.90625 -0.79688,2.765625 z m 9.29759,4.84375 v -9.671875 h 1.46875 v 1.375 q 1.0625,-1.59375 3.07813,-1.59375 0.875,0 1.60937,0.3125 0.73438,0.3125 1.09375,0.828125 0.375,0.5 0.51563,1.203125 0.0937,0.453125 0.0937,1.59375 V 42.92 H 125.528 v -5.890625 q 0,-1 -0.20312,-1.484375 -0.1875,-0.5 -0.67188,-0.796875 -0.48437,-0.296875 -1.14062,-0.296875 -1.04688,0 -1.8125,0.671875 -0.75,0.65625 -0.75,2.515625 V 42.92 Z m 13.26344,0 5.125,-13.359375 h 1.90625 L 145.07269,42.92 h -2.01563 l -1.54687,-4.046875 h -5.59375 L 134.44769,42.92 Z m 3.85937,-5.484375 h 4.53125 L 139.55706,33.7325 q -0.625,-1.6875 -0.9375,-2.765625 -0.26562,1.28125 -0.71875,2.546875 z"
     fill-rule="nonzero"
     id="path17"
     clip-path="url(#clipPath331)"
     transform="translate(6.5,-16)" />
  <path
     fill="#000000"
     fill-opacity="0"
     d="m 109.37008,244.0105 h 174.07874 v 42.01575 H 109.37008 Z"
     fill-rule="evenodd"
     id="path19"
     clip-path="url(#clipPath325)"
     transform="translate(6.5,-16)" />
  <path
     fill="#000000"
     d="m 155.3238,270.9305 v -13.35938 h 5.04687 q 1.32813,0 2.03125,0.125 0.96875,0.17188 1.64063,0.64063 0.67187,0.45312 1.07812,1.28125 0.40625,0.82812 0.40625,1.82812 0,1.70313 -1.09375,2.89063 -1.07812,1.17187 -3.92187,1.17187 h -3.42188 v 5.42188 z m 1.76562,-7 h 3.45313 q 1.71875,0 2.4375,-0.64063 0.71875,-0.64062 0.71875,-1.79687 0,-0.84375 -0.42188,-1.4375 -0.42187,-0.59375 -1.125,-0.78125 -0.4375,-0.125 -1.64062,-0.125 h -3.42188 z m 9.86545,2.15625 q 0,-2.6875 1.48438,-3.96875 1.25,-1.07813 3.04687,-1.07813 2,0 3.26563,1.3125 1.26562,1.29688 1.26562,3.60938 0,1.85937 -0.5625,2.9375 -0.5625,1.0625 -1.64062,1.65625 -1.0625,0.59375 -2.32813,0.59375 -2.03125,0 -3.28125,-1.29688 -1.25,-1.3125 -1.25,-3.76562 z m 1.6875,0 q 0,1.85937 0.79688,2.79687 0.8125,0.92188 2.04687,0.92188 1.21875,0 2.03125,-0.92188 0.8125,-0.9375 0.8125,-2.84375 0,-1.79687 -0.8125,-2.71875 -0.8125,-0.92187 -2.03125,-0.92187 -1.23437,0 -2.04687,0.92187 -0.79688,0.90625 -0.79688,2.76563 z m 9.25072,4.84375 v -13.35938 h 1.64063 v 13.35938 z m 4.11357,3.71875 -0.1875,-1.53125 q 0.54688,0.14062 0.9375,0.14062 0.54688,0 0.875,-0.1875 0.32813,-0.17187 0.54688,-0.5 0.15625,-0.25 0.5,-1.21875 0.0469,-0.14062 0.14062,-0.40625 l -3.67187,-9.6875 h 1.76562 l 2.01563,5.59375 q 0.39062,1.07813 0.70312,2.25 0.28125,-1.125 0.67188,-2.20312 l 2.07812,-5.64063 h 1.64063 l -3.6875,9.82813 q -0.59375,1.60937 -0.92188,2.20312 -0.4375,0.8125 -1,1.1875 -0.5625,0.375 -1.34375,0.375 -0.48437,0 -1.0625,-0.20312 z m 9.09375,-2.92188 1.59375,0.23438 q 0.10938,0.75 0.5625,1.07812 0.60938,0.45313 1.67188,0.45313 1.14062,0 1.75,-0.45313 0.625,-0.45312 0.84375,-1.26562 0.125,-0.5 0.10937,-2.10938 -1.0625,1.26563 -2.67187,1.26563 -2,0 -3.09375,-1.4375 -1.09375,-1.4375 -1.09375,-3.45313 0,-1.39062 0.5,-2.5625 0.51562,-1.17187 1.45312,-1.79687 0.95313,-0.64063 2.25,-0.64063 1.70313,0 2.8125,1.375 v -1.15625 h 1.51563 v 8.35938 q 0,2.26562 -0.46875,3.20312 -0.45313,0.9375 -1.45313,1.48438 -0.98437,0.54687 -2.45312,0.54687 -1.71875,0 -2.79688,-0.78125 -1.0625,-0.76562 -1.03125,-2.34375 z m 1.35938,-5.8125 q 0,1.90625 0.75,2.78125 0.76562,0.875 1.90625,0.875 1.125,0 1.89062,-0.85937 0.76563,-0.875 0.76563,-2.73438 0,-1.78125 -0.79688,-2.67187 -0.78125,-0.90625 -1.89062,-0.90625 -1.09375,0 -1.85938,0.89062 -0.76562,0.875 -0.76562,2.625 z m 8.71946,0.17188 q 0,-2.6875 1.48438,-3.96875 1.25,-1.07813 3.04687,-1.07813 2,0 3.26563,1.3125 1.26562,1.29688 1.26562,3.60938 0,1.85937 -0.5625,2.9375 -0.5625,1.0625 -1.64062,1.65625 -1.0625,0.59375 -2.32813,0.59375 -2.03125,0 -3.28125,-1.29688 -1.25,-1.3125 -1.25,-3.76562 z m 1.6875,0 q 0,1.85937 0.79688,2.79687 0.8125,0.92188 2.04687,0.92188 1.21875,0 2.03125,-0.92188 0.8125,-0.9375 0.8125,-2.84375 0,-1.79687 -0.8125,-2.71875 -0.8125,-0.92187 -2.03125,-0.92187 -1.23437,0 -2.04687,0.92187 -0.79688,0.90625 -0.79688,2.76563 z m 9.2976,4.84375 v -9.67188 h 1.46875 v 1.375 q 1.0625,-1.59375 3.07812,-1.59375 0.875,0 1.60938,0.3125 0.73437,0.3125 1.09375,0.82813 0.375,0.5 0.51562,1.20312 0.0937,0.45313 0.0937,1.59375 v 5.95313 h -1.64062 v -5.89063 q 0,-1 -0.20313,-1.48437 -0.1875,-0.5 -0.67187,-0.79688 -0.48438,-0.29687 -1.14063,-0.29687 -1.04687,0 -1.8125,0.67187 -0.75,0.65625 -0.75,2.51563 v 5.28125 z m 15.68402,0 v -13.35938 h 5.01562 q 1.53125,0 2.45313,0.40625 0.92187,0.40625 1.4375,1.25 0.53125,0.84375 0.53125,1.76563 0,0.85937 -0.46875,1.625 -0.45313,0.75 -1.39063,1.20312 1.20313,0.35938 1.85938,1.21875 0.65625,0.85938 0.65625,2.01563 0,0.9375 -0.40625,1.75 -0.39063,0.79687 -0.98438,1.23437 -0.57812,0.4375 -1.45312,0.67188 -0.875,0.21875 -2.15625,0.21875 z m 1.78125,-7.75 h 2.875 q 1.1875,0 1.6875,-0.14063 0.67187,-0.20312 1.01562,-0.67187 0.34375,-0.46875 0.34375,-1.17188 0,-0.65625 -0.32812,-1.15625 -0.3125,-0.51562 -0.90625,-0.70312 -0.59375,-0.1875 -2.03125,-0.1875 h -2.65625 z m 0,6.17187 h 3.3125 q 0.85937,0 1.20312,-0.0625 0.60938,-0.10937 1.01563,-0.35937 0.42187,-0.26563 0.6875,-0.75 0.26562,-0.48438 0.26562,-1.125 0,-0.75 -0.39062,-1.29688 -0.375,-0.54687 -1.0625,-0.76562 -0.67188,-0.23438 -1.95313,-0.23438 h -3.07812 z"
     fill-rule="nonzero"
     id="path21"
     clip-path="url(#clipPath319)"
     transform="translate(6.5,-16)" />
  <path
     fill="#000000"
     fill-opacity="0"
     d="m 16,77.81102 h 174.07874 v 42.01575 H 16 Z"
     fill-rule="evenodd"
     id="path23"
     clip-path="url(#clipPath313)"
     transform="translate(6.5,-16)" />
  <path
     fill="#000000"
     d="m 105.39838,103.54352 q -0.92187,0.76563 -1.76562,1.09375 -0.82813,0.3125 -1.79688,0.3125 -1.59375,0 -2.453121,-0.78125 -0.859375,-0.78125 -0.859375,-1.98437 0,-0.71875 0.328125,-1.29688 0.328125,-0.59375 0.84375,-0.9375 0.531251,-0.359375 1.187501,-0.546875 0.46875,-0.125 1.45312,-0.25 1.98438,-0.234375 2.92188,-0.5625 0.0156,-0.34375 0.0156,-0.421875 0,-1 -0.46875,-1.421875 -0.625,-0.546875 -1.875,-0.546875 -1.15625,0 -1.70312,0.40625 -0.54688,0.40625 -0.8125,1.421875 l -1.609376,-0.21875 q 0.21875,-1.015625 0.71875,-1.640625 0.499996,-0.640625 1.453126,-0.984375 0.95312,-0.34375 2.1875,-0.34375 1.25,0 2.01562,0.296875 0.78125,0.28125 1.14063,0.734375 0.375,0.4375 0.51562,1.109375 0.0781,0.421875 0.0781,1.515625 v 2.187505 q 0,2.28125 0.10937,2.89062 0.10938,0.59375 0.40625,1.15625 h -1.70312 q -0.26563,-0.51562 -0.32813,-1.1875 z m -0.14062,-3.671875 q -0.89063,0.375005 -2.67188,0.625005 -1.01562,0.14062 -1.4375,0.32812 -0.42187,0.1875 -0.65625,0.53125 -0.21875,0.34375 -0.21875,0.78125 0,0.65625 0.5,1.09375 0.5,0.4375 1.45313,0.4375 0.9375,0 1.67187,-0.40625 0.75,-0.42187 1.09375,-1.14062 0.26563,-0.5625 0.26563,-1.64063 z"
     fill-rule="nonzero"
     id="path25"
     clip-path="url(#clipPath307)"
     transform="translate(6.5,-16)" />
  <path
     fill="#000000"
     fill-opacity="0"
     d="m 109.37008,189.04462 h 174.07874 v 42.01575 H 109.37008 Z"
     fill-rule="evenodd"
     id="path27"
     clip-path="url(#clipPath301)"
     transform="translate(6.5,-16)" />
  <path
     fill="#000000"
     d="m 193.95596,215.96461 h -1.51563 v -13.35938 h 1.64063 v 4.76563 q 1.04687,-1.29688 2.65625,-1.29688 0.89062,0 1.6875,0.35938 0.79687,0.35937 1.3125,1.01562 0.51562,0.64063 0.79687,1.5625 0.29688,0.92188 0.29688,1.96875 0,2.48438 -1.23438,3.84375 -1.21875,1.35938 -2.95312,1.35938 -1.70313,0 -2.6875,-1.4375 z m -0.0156,-4.90625 q 0,1.73437 0.48438,2.51562 0.76562,1.26563 2.09375,1.26563 1.07812,0 1.85937,-0.9375 0.78125,-0.9375 0.78125,-2.78125 0,-1.89063 -0.75,-2.79688 -0.75,-0.90625 -1.82812,-0.90625 -1.0625,0 -1.85938,0.9375 -0.78125,0.9375 -0.78125,2.70313 z"
     fill-rule="nonzero"
     id="path29"
     clip-path="url(#clipPath295)"
     transform="translate(6.5,-16)" />
  <path
     fill="#000000"
     fill-opacity="0"
     d="m 109.37008,130.00525 h 80.40945 V 172.021 h -80.40945 z"
     fill-rule="evenodd"
     id="path31"
     clip-path="url(#clipPath289)"
     transform="translate(6.5,-16)" />
  <path
     fill="#000000"
     d="m 146.74596,155.73775 q -0.92188,0.76562 -1.76563,1.09375 -0.82812,0.3125 -1.79687,0.3125 -1.59375,0 -2.45313,-0.78125 -0.85937,-0.78125 -0.85937,-1.98438 0,-0.71875 0.32812,-1.29687 0.32813,-0.59375 0.84375,-0.9375 0.53125,-0.35938 1.1875,-0.54688 0.46875,-0.125 1.45313,-0.25 1.98437,-0.23437 2.92187,-0.5625 0.0156,-0.34375 0.0156,-0.42187 0,-1 -0.46875,-1.42188 -0.625,-0.54687 -1.875,-0.54687 -1.15625,0 -1.70313,0.40625 -0.54687,0.40625 -0.8125,1.42187 l -1.60937,-0.21875 q 0.21875,-1.01562 0.71875,-1.64062 0.5,-0.64063 1.45312,-0.98438 0.95313,-0.34375 2.1875,-0.34375 1.25,0 2.01563,0.29688 0.78125,0.28125 1.14062,0.73437 0.375,0.4375 0.51563,1.10938 0.0781,0.42187 0.0781,1.51562 v 2.1875 q 0,2.28125 0.10938,2.89063 0.10937,0.59375 0.40625,1.15625 h -1.70313 q -0.26562,-0.51563 -0.32812,-1.1875 z m -0.14063,-3.67188 q -0.89062,0.375 -2.67187,0.625 -1.01563,0.14063 -1.4375,0.32813 -0.42188,0.1875 -0.65625,0.53125 -0.21875,0.34375 -0.21875,0.78125 0,0.65625 0.5,1.09375 0.5,0.4375 1.45312,0.4375 0.9375,0 1.67188,-0.40625 0.75,-0.42188 1.09375,-1.14063 0.26562,-0.5625 0.26562,-1.64062 z m 5.70385,4.85938 h -1.51563 v -13.35938 h 1.64063 v 4.76563 q 1.04687,-1.29688 2.65625,-1.29688 0.89062,0 1.6875,0.35938 0.79687,0.35937 1.3125,1.01562 0.51562,0.64063 0.79687,1.5625 0.29688,0.92188 0.29688,1.96875 0,2.48438 -1.23438,3.84375 -1.21875,1.35938 -2.95312,1.35938 -1.70313,0 -2.6875,-1.4375 z m -0.0156,-4.90625 q 0,1.73437 0.48438,2.51562 0.76562,1.26563 2.09375,1.26563 1.07812,0 1.85937,-0.9375 0.78125,-0.9375 0.78125,-2.78125 0,-1.89063 -0.75,-2.79688 -0.75,-0.90625 -1.82812,-0.90625 -1.0625,0 -1.85938,0.9375 -0.78125,0.9375 -0.78125,2.70313 z"
     fill-rule="nonzero"
     id="path33"
     clip-path="url(#clipPath283)"
     transform="translate(6.5,-16)" />
  <path
     fill="#000000"
     fill-opacity="0"
     d="M 16,58.015747 H 190.07874 V 176.09448 H 16 Z"
     fill-rule="evenodd"
     id="path35"
     clip-path="url(#clipPath277)"
     transform="translate(6.5,-16)" />
  <path
     stroke="#000000"
     stroke-width="1"
     stroke-linejoin="round"
     stroke-linecap="butt"
     d="M 16,58.015747 H 190.07874 V 176.09448 H 16 Z"
     fill-rule="evenodd"
     id="path37"
     clip-path="url(#clipPath271)"
     transform="translate(6.5,-16)" />
  <path
     fill="#000000"
     fill-opacity="0"
     d="M 109.37008,125.93175 H 283.44882 V 244.01049 H 109.37008 Z"
     fill-rule="evenodd"
     id="path39"
     clip-path="url(#clipPath265)"
     transform="translate(6.5,-16)" />
  <path
     stroke="#000000"
     stroke-width="1"
     stroke-linejoin="round"
     stroke-linecap="butt"
     d="M 109.37008,125.93175 H 283.44882 V 244.01049 H 109.37008 Z"
     fill-rule="evenodd"
     id="path41"
     clip-path="url(#clipPath259)"
     transform="translate(6.5,-16)" />
  <path
     fill="#000000"
     d="m 243.72339,61.58851 v -1.578125 h 5.65625 v 4.953125 q -1.29688,1.046875 -2.6875,1.578125 -1.375,0.515625 -2.84375,0.515625 -1.96875,0 -3.57813,-0.84375 -1.60937,-0.84375 -2.42187,-2.4375 -0.8125,-1.59375 -0.8125,-3.5625 0,-1.953125 0.8125,-3.640625 0.8125,-1.6875 2.34375,-2.5 1.53125,-0.828125 3.51562,-0.828125 1.45313,0 2.625,0.46875 1.17188,0.46875 1.82813,1.3125 0.67187,0.828125 1.01562,2.171875 l -1.59375,0.4375 q -0.29687,-1.015625 -0.75,-1.59375 -0.4375,-0.59375 -1.26562,-0.9375 -0.82813,-0.34375 -1.84375,-0.34375 -1.20313,0 -2.09375,0.375 -0.89063,0.359375 -1.4375,0.96875 -0.53125,0.59375 -0.82813,1.3125 -0.51562,1.234375 -0.51562,2.6875 0,1.78125 0.60937,2.984375 0.625,1.203125 1.79688,1.796875 1.17187,0.578125 2.5,0.578125 1.14062,0 2.23437,-0.4375 1.09375,-0.453125 1.65625,-0.953125 V 61.58851 Z m 8.01143,5.234375 V 53.46351 h 1.64062 v 13.359375 z m 3.58232,-4.84375 q 0,-2.6875 1.48438,-3.96875 1.25,-1.078125 3.04687,-1.078125 2,0 3.26563,1.3125 1.26562,1.296875 1.26562,3.609375 0,1.859375 -0.5625,2.9375 -0.5625,1.0625 -1.64062,1.65625 -1.0625,0.59375 -2.32813,0.59375 -2.03125,0 -3.28125,-1.296875 -1.25,-1.3125 -1.25,-3.765625 z m 1.6875,0 q 0,1.859375 0.79688,2.796875 0.8125,0.921875 2.04687,0.921875 1.21875,0 2.03125,-0.921875 0.8125,-0.9375 0.8125,-2.84375 0,-1.796875 -0.8125,-2.71875 -0.8125,-0.921875 -2.03125,-0.921875 -1.23437,0 -2.04687,0.921875 -0.79688,0.90625 -0.79688,2.765625 z m 10.79761,4.84375 h -1.51563 V 53.46351 h 1.64063 v 4.765625 q 1.04687,-1.296875 2.65625,-1.296875 0.89062,0 1.6875,0.359375 0.79687,0.359375 1.3125,1.015625 0.51562,0.640625 0.79687,1.5625 0.29688,0.921875 0.29688,1.96875 0,2.484375 -1.23438,3.84375 -1.21875,1.359375 -2.95312,1.359375 -1.70313,0 -2.6875,-1.4375 z m -0.0156,-4.90625 q 0,1.734375 0.48438,2.515625 0.76562,1.265625 2.09375,1.265625 1.07812,0 1.85937,-0.9375 0.78125,-0.9375 0.78125,-2.78125 0,-1.890625 -0.75,-2.796875 -0.75,-0.90625 -1.82812,-0.90625 -1.0625,0 -1.85938,0.9375 -0.78125,0.9375 -0.78125,2.703125 z m 15.20383,3.71875 q -0.92188,0.765625 -1.76563,1.09375 -0.82812,0.3125 -1.79687,0.3125 -1.59375,0 -2.45313,-0.78125 -0.85937,-0.78125 -0.85937,-1.984375 0,-0.71875 0.32812,-1.296875 0.32813,-0.59375 0.84375,-0.9375 0.53125,-0.359375 1.1875,-0.546875 0.46875,-0.125 1.45313,-0.25 1.98437,-0.234375 2.92187,-0.5625 0.0156,-0.34375 0.0156,-0.421875 0,-1 -0.46875,-1.421875 -0.625,-0.546875 -1.875,-0.546875 -1.15625,0 -1.70313,0.40625 -0.54687,0.40625 -0.8125,1.421875 l -1.60937,-0.21875 q 0.21875,-1.015625 0.71875,-1.640625 0.5,-0.640625 1.45312,-0.984375 0.95313,-0.34375 2.1875,-0.34375 1.25,0 2.01563,0.296875 0.78125,0.28125 1.14062,0.734375 0.375,0.4375 0.51563,1.109375 0.0781,0.421875 0.0781,1.515625 v 2.1875 q 0,2.28125 0.10938,2.890625 0.10937,0.59375 0.40625,1.15625 h -1.70313 q -0.26562,-0.515625 -0.32812,-1.1875 z m -0.14063,-3.671875 q -0.89062,0.375 -2.67187,0.625 -1.01563,0.140625 -1.4375,0.328125 -0.42188,0.1875 -0.65625,0.53125 -0.21875,0.34375 -0.21875,0.78125 0,0.65625 0.5,1.09375 0.5,0.4375 1.45312,0.4375 0.9375,0 1.67188,-0.40625 0.75,-0.421875 1.09375,-1.140625 0.26562,-0.5625 0.26562,-1.640625 z m 4.15699,4.859375 V 53.46351 h 1.64062 v 13.359375 z"
     fill-rule="nonzero"
     id="path45"
     clip-path="url(#clipPath247)"
     transform="translate(6.5,-16)" />
  <path
     fill="#000000"
     d="m 233.41754,89.222885 5.125,-13.359375 h 1.90625 l 5.46875,13.359375 h -2.01563 l -1.54687,-4.046875 h -5.59375 l -1.46875,4.046875 z m 3.85937,-5.484375 h 4.53125 l -1.40625,-3.703125 q -0.625,-1.6875 -0.9375,-2.765625 -0.26562,1.28125 -0.71875,2.546875 z m 9.8342,5.484375 V 79.55101 h 1.46875 v 1.46875 q 0.5625,-1.03125 1.03125,-1.359375 0.48438,-0.328125 1.0625,-0.328125 0.82813,0 1.6875,0.53125 l -0.5625,1.515625 q -0.60937,-0.359375 -1.20312,-0.359375 -0.54688,0 -0.96875,0.328125 -0.42188,0.328125 -0.60938,0.890625 -0.28125,0.875 -0.28125,1.921875 v 5.0625 z m 12.8533,-3.109375 1.6875,0.203125 q -0.40625,1.484375 -1.48437,2.3125 -1.07813,0.8125 -2.76563,0.8125 -2.125,0 -3.375,-1.296875 -1.23437,-1.3125 -1.23437,-3.671875 0,-2.453125 1.25,-3.796875 1.26562,-1.34375 3.26562,-1.34375 1.9375,0 3.15625,1.328125 1.23438,1.3125 1.23438,3.703125 0,0.15625 0,0.4375 h -7.21875 q 0.0937,1.59375 0.90625,2.453125 0.8125,0.84375 2.01562,0.84375 0.90625,0 1.54688,-0.46875 0.64062,-0.484375 1.01562,-1.515625 z m -5.39062,-2.65625 h 5.40625 q -0.10938,-1.21875 -0.625,-1.828125 -0.78125,-0.953125 -2.03125,-0.953125 -1.125,0 -1.90625,0.765625 -0.76563,0.75 -0.84375,2.015625 z m 15.45386,4.578125 q -0.92188,0.765625 -1.76563,1.09375 -0.82812,0.3125 -1.79687,0.3125 -1.59375,0 -2.45313,-0.78125 -0.85937,-0.78125 -0.85937,-1.984375 0,-0.71875 0.32812,-1.296875 0.32813,-0.59375 0.84375,-0.9375 0.53125,-0.359375 1.1875,-0.546875 0.46875,-0.125 1.45313,-0.25 1.98437,-0.234375 2.92187,-0.5625 0.0156,-0.34375 0.0156,-0.421875 0,-1 -0.46875,-1.421875 -0.625,-0.546875 -1.875,-0.546875 -1.15625,0 -1.70313,0.40625 -0.54687,0.40625 -0.8125,1.421875 l -1.60937,-0.21875 q 0.21875,-1.015625 0.71875,-1.640625 0.5,-0.640625 1.45312,-0.984375 0.95313,-0.34375 2.1875,-0.34375 1.25,0 2.01563,0.296875 0.78125,0.28125 1.14062,0.734375 0.375,0.4375 0.51563,1.109375 0.0781,0.421875 0.0781,1.515625 v 2.1875 q 0,2.28125 0.10938,2.890625 0.10937,0.59375 0.40625,1.15625 h -1.70313 q -0.26562,-0.515625 -0.32812,-1.1875 z m -0.14063,-3.671875 q -0.89062,0.375 -2.67187,0.625 -1.01563,0.140625 -1.4375,0.328125 -0.42188,0.1875 -0.65625,0.53125 -0.21875,0.34375 -0.21875,0.78125 0,0.65625 0.5,1.09375 0.5,0.4375 1.45312,0.4375 0.9375,0 1.67188,-0.40625 0.75,-0.421875 1.09375,-1.140625 0.26562,-0.5625 0.26562,-1.640625 z m 15.84027,-0.375 v -1.578125 h 5.65625 v 4.953125 q -1.29687,1.046875 -2.6875,1.578125 -1.375,0.515625 -2.84375,0.515625 -1.96875,0 -3.57812,-0.84375 -1.60938,-0.84375 -2.42188,-2.4375 -0.8125,-1.59375 -0.8125,-3.5625 0,-1.953125 0.8125,-3.640625 0.8125,-1.6875 2.34375,-2.5 1.53125,-0.828125 3.51563,-0.828125 1.45312,0 2.625,0.46875 1.17187,0.46875 1.82812,1.3125 0.67188,0.828125 1.01563,2.171875 l -1.59375,0.4375 q -0.29688,-1.015625 -0.75,-1.59375 -0.4375,-0.59375 -1.26563,-0.9375 -0.82812,-0.34375 -1.84375,-0.34375 -1.20312,0 -2.09375,0.375 -0.89062,0.359375 -1.4375,0.96875 -0.53125,0.59375 -0.82812,1.3125 -0.51563,1.234375 -0.51563,2.6875 0,1.78125 0.60938,2.984375 0.625,1.203125 1.79687,1.796875 1.17188,0.578125 2.5,0.578125 1.14063,0 2.23438,-0.4375 1.09375,-0.453125 1.65625,-0.953125 V 83.98851 Z"
     fill-rule="nonzero"
     id="path47"
     clip-path="url(#clipPath241)"
     transform="translate(6.5,-16)" />
</svg>
